<?xml version="1.0" standalone="no"?>
<!DOCTYPE svg PUBLIC "-//W3C//DTD SVG 20010904//EN"
 "http://www.w3.org/TR/2001/REC-SVG-20010904/DTD/svg10.dtd">
<svg version="1.0" xmlns="http://www.w3.org/2000/svg"
 width="1184.000000pt" height="1184.000000pt" viewBox="0 0 1184.000000 1184.000000"
 preserveAspectRatio="xMidYMid meet">
<metadata>
Created by potrace 1.14, written by Peter Selinger 2001-2017
</metadata>
<g transform="translate(0.000000,1184.000000) scale(0.100000,-0.100000)"
fill="#000000" stroke="none">
<path d="M4074 11817 c-91 -53 -168 -112 -247 -190 -72 -71 -167 -185 -167
-201 0 -3 -15 -29 -33 -58 -18 -29 -39 -66 -47 -83 -8 -16 -23 -42 -33 -57
-10 -16 -16 -28 -14 -28 3 0 -8 -28 -25 -62 -17 -35 -31 -67 -33 -73 -1 -5 -5
-17 -8 -25 -25 -61 -65 -180 -61 -180 4 0 1 -7 -6 -15 -7 -8 -9 -15 -5 -15 4
0 1 -7 -6 -17 -8 -9 -13 -17 -11 -17 8 -2 -12 -63 -32 -101 -30 -56 -92 -117
-156 -153 -30 -17 -57 -31 -60 -31 -3 0 -18 -4 -33 -10 -16 -6 -36 -11 -46
-11 -10 0 -21 -3 -25 -7 -3 -4 -12 -8 -19 -9 -7 -1 -34 -7 -62 -13 -27 -6 -59
-12 -70 -14 -11 -3 -47 -8 -80 -12 -33 -4 -69 -9 -80 -10 -11 -2 -47 -6 -80
-10 -33 -4 -66 -12 -72 -17 -9 -7 -13 -7 -13 1 0 7 -3 10 -7 8 -8 -5 -49 -13
-118 -23 -130 -19 -138 -20 -175 -28 -13 -3 -40 -8 -60 -11 -20 -3 -47 -8 -60
-10 -37 -8 -181 -36 -210 -41 -14 -3 -41 -9 -60 -14 -19 -5 -46 -11 -60 -14
-99 -21 -184 -57 -230 -98 -33 -29 -73 -86 -79 -113 -6 -24 -6 -132 0 -160 5
-23 69 -157 78 -165 3 -3 17 -21 31 -40 44 -62 116 -138 206 -218 68 -59 203
-159 236 -174 16 -7 28 -16 28 -20 0 -5 5 -8 10 -8 6 0 36 -17 68 -38 31 -21
96 -63 145 -93 48 -29 87 -57 87 -61 0 -5 5 -8 11 -8 12 0 111 -80 142 -115
35 -40 69 -106 81 -159 13 -55 14 -207 1 -301 -3 -27 -8 -63 -9 -80 -7 -62
-29 -217 -41 -292 -2 -13 -6 -27 -10 -33 -3 -5 -1 -10 5 -10 6 0 8 -4 5 -10
-9 -14 -22 -88 -30 -170 -3 -25 -11 -85 -21 -150 -3 -19 -7 -53 -9 -75 -2 -22
-6 -60 -10 -85 -7 -56 -14 -112 -20 -170 -2 -25 -7 -61 -10 -80 -3 -19 -7 -64
-10 -100 -3 -36 -7 -81 -10 -100 -3 -19 -7 -64 -10 -100 -2 -36 -6 -92 -9
-125 -25 -305 -28 -382 -29 -755 -1 -359 5 -498 29 -705 4 -27 7 -62 7 -77 0
-16 3 -28 6 -28 3 0 6 -14 5 -31 0 -18 3 -53 8 -78 5 -25 11 -68 14 -96 4 -27
9 -54 11 -59 3 -4 8 -25 10 -45 3 -20 16 -85 29 -146 37 -164 34 -154 48 -210
23 -91 102 -356 115 -390 27 -64 71 -194 71 -207 0 -7 4 -18 8 -24 5 -5 33
-70 62 -144 29 -74 70 -172 91 -218 21 -45 36 -82 34 -82 -2 0 11 -29 30 -65
19 -36 35 -72 35 -80 0 -8 5 -15 10 -15 6 0 10 -6 10 -14 0 -7 18 -48 40 -91
22 -43 40 -84 40 -91 0 -7 3 -14 8 -16 4 -1 37 -64 75 -138 37 -74 92 -182
123 -240 98 -185 108 -205 109 -212 0 -3 3 -9 7 -13 8 -8 129 -253 183 -370
20 -44 47 -102 60 -130 31 -66 66 -148 69 -160 2 -5 9 -23 16 -40 7 -16 19
-43 26 -60 17 -42 94 -251 94 -258 0 -3 5 -18 12 -34 6 -15 12 -33 13 -39 2
-6 14 -48 28 -95 28 -90 66 -238 73 -279 3 -14 10 -50 16 -80 7 -30 12 -64 13
-75 1 -11 4 -29 7 -40 4 -11 9 -47 13 -80 3 -33 8 -71 10 -85 9 -50 16 -241
20 -485 4 -247 7 -291 22 -306 13 -12 112 -24 188 -23 158 4 294 14 317 24 28
13 44 49 63 145 6 29 26 192 30 245 2 25 7 68 10 95 6 53 10 130 20 340 3 72
8 175 11 230 2 55 6 149 9 208 3 106 14 159 16 81 0 -21 2 -90 3 -152 2 -62 5
-115 9 -118 3 -3 1 -19 -3 -35 -5 -16 -6 -29 -2 -29 4 0 8 -75 10 -168 3 -178
9 -367 12 -367 1 0 3 -25 5 -55 4 -47 10 -94 29 -215 8 -52 19 -95 38 -152 25
-74 21 -72 207 -67 254 8 258 8 278 27 28 24 57 161 68 322 2 22 6 67 10 100
3 33 7 80 9 105 10 118 17 197 21 220 4 26 14 141 20 245 9 158 18 235 40 365
18 104 65 263 101 347 8 17 14 36 14 42 0 6 5 11 12 11 6 0 9 3 5 6 -5 5 49
121 63 134 8 8 37 54 39 63 0 4 9 15 19 26 9 10 31 35 47 56 37 46 100 109
139 138 16 12 37 30 48 40 52 49 287 153 383 170 17 3 41 8 55 11 76 17 379
30 405 17 5 -3 21 -6 35 -7 31 -2 126 -14 154 -20 125 -26 174 -36 188 -38 10
-1 20 -5 24 -8 3 -4 12 -4 20 -1 8 3 14 0 14 -7 0 -6 4 -9 8 -6 5 3 26 1 47
-5 20 -6 45 -12 54 -14 85 -19 408 -129 560 -191 93 -38 352 -164 441 -214 63
-36 229 -147 279 -187 91 -73 198 -195 224 -253 4 -8 25 -42 46 -75 35 -52
108 -191 133 -250 4 -11 15 -51 24 -90 31 -138 35 -191 40 -519 3 -154 7 -282
9 -284 3 -3 0 -11 -6 -19 -9 -9 -8 -13 0 -13 9 0 9 -5 1 -20 -6 -11 -7 -20 -3
-20 4 0 8 -26 7 -58 0 -31 3 -62 8 -68 5 -7 8 -16 7 -20 -7 -39 6 -50 71 -61
51 -9 249 -9 295 0 42 8 85 46 85 76 0 9 5 22 12 29 7 7 9 12 6 12 -3 0 0 24
8 52 8 29 17 71 20 93 2 22 8 51 11 65 3 14 7 34 8 45 5 37 16 120 21 145 3
14 7 49 10 78 3 29 7 61 9 70 2 9 4 29 4 45 1 44 17 31 20 -17 1 -25 4 -55 7
-68 3 -13 7 -36 9 -53 11 -75 18 -132 20 -155 2 -14 6 -45 9 -70 3 -25 8 -62
11 -82 13 -97 17 -123 20 -129 2 -3 7 -20 10 -38 8 -46 32 -79 63 -86 15 -3
38 -8 52 -11 39 -8 248 -7 310 1 53 7 70 18 77 55 14 63 18 197 18 530 -1 347
-5 525 -21 905 -2 66 -6 163 -9 215 -2 52 -4 95 -5 95 -1 0 -3 43 -5 95 -4
113 -13 231 -20 280 -2 19 -7 55 -10 80 -4 40 -10 83 -19 145 -2 11 -6 36 -10
55 -3 19 -8 46 -10 60 -8 51 -41 228 -51 270 -3 14 -7 40 -10 57 -5 37 -15 98
-22 128 -3 11 -6 34 -8 50 -2 17 -6 44 -9 60 -7 33 -16 99 -21 160 -3 22 -7
67 -10 100 -11 118 -14 193 -14 385 0 217 1 259 23 545 7 86 18 191 22 220 3
17 7 48 9 69 3 21 7 57 11 80 8 56 10 72 19 141 4 33 9 63 11 66 2 3 6 33 10
65 3 32 7 61 9 64 2 3 6 30 10 60 4 30 9 58 11 62 17 27 23 352 11 498 -4 41
-9 102 -12 135 -3 33 -8 67 -10 75 -3 8 -7 35 -10 60 -3 25 -8 56 -11 70 -3
14 -7 34 -8 45 -10 58 -30 137 -48 190 -23 71 -25 78 -27 88 -1 13 -33 72 -48
89 -23 26 0 30 54 10 51 -20 54 -20 94 -9 33 9 99 80 100 110 4 64 -18 158
-61 262 -4 11 -18 45 -30 75 -46 114 -153 340 -161 340 -5 0 -9 7 -9 15 0 44
-226 305 -264 305 -9 0 -16 4 -16 10 0 13 -78 33 -125 31 -62 -3 -88 -7 -118
-19 -16 -7 -32 -12 -36 -12 -5 0 -14 -7 -21 -15 -7 -9 -15 -13 -18 -11 -10 10
-95 -81 -115 -124 -36 -77 -23 -202 26 -257 l20 -22 -29 5 c-16 3 -47 10 -69
15 -22 6 -48 11 -57 12 -10 1 -18 4 -18 7 0 3 -8 6 -17 7 -30 1 -107 16 -133
25 -13 5 -59 15 -152 33 -16 3 -40 7 -55 10 -109 21 -143 28 -178 35 -98 22
-202 30 -365 31 -167 0 -381 -12 -455 -27 -11 -3 -47 -7 -80 -9 -33 -3 -71 -7
-85 -10 -14 -3 -45 -7 -70 -10 -25 -3 -56 -8 -70 -10 -14 -3 -43 -7 -65 -11
-22 -3 -80 -12 -130 -20 -49 -8 -107 -17 -128 -20 -47 -7 -72 -12 -72 -14 0
-1 -13 -3 -30 -5 -54 -7 -190 -30 -238 -41 -16 -3 -38 -7 -50 -9 -20 -3 -74
-12 -116 -20 -9 -1 -36 -6 -61 -10 -25 -4 -54 -9 -65 -12 -11 -2 -33 -6 -49
-8 -15 -2 -35 -6 -45 -9 -9 -3 -35 -8 -58 -11 -80 -11 -98 -14 -123 -20 -14
-3 -45 -8 -70 -11 -25 -3 -52 -7 -60 -9 -36 -7 -178 -28 -205 -30 -16 -2 -30
-4 -30 -5 0 -1 -18 -3 -40 -5 -43 -3 -135 -12 -200 -20 -48 -6 -296 -6 -345
-1 -60 7 -113 17 -163 31 -64 19 -167 66 -167 76 0 5 -6 9 -13 9 -23 0 -160
140 -224 230 -79 110 -170 286 -163 316 1 4 -2 10 -7 13 -9 7 -25 47 -55 141
-11 36 -26 79 -33 95 -7 17 -16 46 -20 65 -4 19 -10 40 -14 45 -8 14 -67 225
-90 325 -5 19 -13 47 -19 61 -6 15 -8 29 -5 32 3 3 1 12 -3 19 -5 7 -10 20
-12 28 -1 8 -5 25 -7 38 -3 12 -7 33 -9 46 -2 13 -7 33 -10 44 -7 21 -13 48
-22 92 -3 14 -7 32 -9 40 -2 8 -7 29 -10 45 -2 17 -7 41 -10 55 -3 14 -8 39
-11 55 -11 62 -13 71 -24 125 -6 30 -13 64 -14 75 -2 11 -6 34 -9 50 -4 17 -9
48 -12 70 -3 23 -7 50 -9 61 -2 12 -7 45 -11 75 -4 30 -8 56 -10 59 -2 3 -6
32 -10 65 -7 61 -13 109 -19 155 -2 14 -7 59 -11 100 -3 41 -8 86 -11 100 -20
108 -24 676 -9 1237 8 312 9 762 2 788 -3 11 -6 30 -6 41 -1 12 -9 31 -18 43
l-18 21 -41 -23z m693 -10389 c-3 -8 -6 -5 -6 6 -1 11 2 17 5 13 3 -3 4 -12 1
-19z"/>
</g>
</svg>
