<svg xmlns="http://www.w3.org/2000/svg" width="37.5" height="50"><path d="M9.214 1.732a10.384 10.384 0 00-1.227 2.9c-.33.735-.8 1.123-2.884 1.36a38.807 38.807 0 00-3.988.709c-1.963.532-1.227 2.483 1.411 4.138 2.516 1.537 2.516 1.537 2.147 4.256-1.6 10.819-1.043 15.016 3.129 22.879 2.025 3.784 2.884 6.267 3.129 8.69.151 1.709-.016 3.153.185 3.24a7.789 7.789 0 001.981 0c.334.031.411-.4.6-2.353l.184-4.02.123 4.02a5.449 5.449 0 00.45 2.353 8.463 8.463 0 001.665 0c.462.015.424-.093.792-4.054.1-4 2-6.635 5.929-6.221 3.375.414 7.547 2.306 8.467 3.9a5.246 5.246 0 011.03 2.618c.153 1.593-.075 3.64.223 3.755a3.585 3.585 0 001.658 0c.357-.143.653-3.231.653-3.231s.147 1.012.249 1.81.144 1.348.421 1.421a5.47 5.47 0 001.779 0c.422-.12 0-7.969 0-7.969-.184-4.434-1.764-5.289-.31-13.7.2-1.212-.113-4.434-.822-5.275a3.628 3.628 0 00.529.208c.016-.016.244.071.553-.325.3-.311-.282-1.592-.809-2.72s-1.347-1.853-1.847-1.849a1.585 1.585 0 00-1.147.426 1.055 1.055 0 00-.329.874.979.979 0 00.284.666s-1.089-.288-3.1-.666c-1.9-.355-4.6.133-8.285.784-5.829 1.064-6.81.887-8.16-1.123-.829-1.243-2.221-6.165-2.6-10.86-.113-1.29 0-2.249 0-3.633 0-2.246.229-4.562-.139-4.739a5 5 0 00-1.924 1.731z" fill="#34c76d"/></svg>